<?xml version="1.0" encoding="utf-8"?>
<!-- Generator: Adobe Illustrator 24.1.3, SVG Export Plug-In . SVG Version: 6.00 Build 0)  -->
<svg version="1.1" id="Capa_1" xmlns="http://www.w3.org/2000/svg" xmlns:xlink="http://www.w3.org/1999/xlink" x="0px" y="0px"
	 viewBox="0 0 1024 1024" style="enable-background:new 0 0 1024 1024;" xml:space="preserve">
<g transform="translate(0.000000,1024.000000) scale(0.100000,-0.100000)">
	<path d="M4390,9150c-36-5-78-13-93-19c-65-25-176-98-236-155c-120-115-144-173-156-372c-8-120-4-136,44-187c22-25,18-23-34,11
		c-33,22-71,52-85,67l-24,26l22,62c12,34,22,73,22,88c0,51-73,140-148,178c-41,22-161,15-236-13c-109-41-228-142-274-232
		c-48-94-58-303-23-461c20-89,87-246,102-238c4,3,10,26,13,52c13,89,54,228,90,303c41,84,45,127,20,210c-18,61-13,106,17,144
		c44,56,149,84,192,52c16-13,17-17,5-38c-19-34-15-190,7-260c31-101,89-152,225-199c53-18,70-20,114-11c28,5,71,7,96,3
		c102-16,222-114,254-208c31-91,15-246-40-388c-35-89-166-240-202-233c-28,5-19,28,23,56c97,65,112,201,33,298c-17,22-28,30-24,19
		s10-50,13-86c7-77-18-146-62-175c-25-16-28-16-61-1c-41,20-122,22-194,5c-69-16-63-36,20-62c128-42,220-103,378-250l74-69l32,38
		c27,31,43,40,101,54c81,20,80,18,91,175c5,80,2,133-14,242c-12,76-26,198-31,269c-6,77-18,152-29,185c-34,99-79,187-103,204
		c-13,9-19,16-13,16c15,0,83-51,115-86c45-49,130-175,155-228c35-74,33-178-6-332c-22-88-30-143-30-211c0-108-14-183-40-216
		c-11-13-45-34-77-45c-58-21-109-63-113-92c-1-8-1-28,0-45l2-30l9,32c17,57,117,120,231,144c35,8,52,17,55,30c7,25,27,24,45-3
		c36-54,66,21,94,232c15,119,15,302,0,385c-10,52,39-62,60-140c26-94,26-321,1-379c-25-57-22-56,34,15c98,125,143,249,143,394
		c1,79-4,100-33,173c-46,115-118,219-235,340c-154,159-313,257-502,312c-86,24-124,51-124,88c0,15,12,63,26,106
		c32,94,93,169,153,186c124,34,221-20,221-125c0-54,36-85,97-85c68,1,126,30,160,81c23,34,28,56,31,116c4,64,1,80-22,128
		C4687,9115,4559,9171,4390,9150z M4264,7438c-5-7-19-29-32-48c-19-28-23-43-18-76c6-49-6-64-51-64c-27,0-33,4-33,21
		c0,32,18,59,78,122C4264,7450,4278,7461,4264,7438z"/>
	<path d="M5627,9136c-100-36-161-130-162-250c0-124,64-205,169-214c48-4,58-1,79,21c16,15,28,42,32,71c19,122,151,163,269,85
		c51-34,94-110,121-214c22-88,10-101-136-141c-192-54-339-139-485-280c-89-87-140-151-192-239c-113-195-113-364,0-575
		c39-74,116-185,123-178c3,2-3,33-12,68c-18,76-20,279-3,355c12,57,51,167,56,162c2-2-1-41-6-86c-9-70-7-111,15-284
		c33-265,56-325,98-264l16,22l18-23c11-13,45-30,80-41c65-20,164-80,188-114c23-33,19,2-5,40c-18,30-88,83-109,83c-5,0-23,11-40,25
		c-45,38-57,111-41,237c13,95,13,99-15,200c-23,84-29,125-29,218c-1,135,13,187,75,275c46,66,47,67,114,120c48,39,49,39,30,10
		c-62-96-85-190-96-380c-4-82-17-199-28-260c-29-163-35-241-21-315c14-78,27-94,87-111c53-14,123-77,123-109c0-15,19,1,70,58
		c121,138,273,249,373,273c51,12,67,22,67,46c0,20-99,34-191,27l-85-6l-27,31c-39,47-47,125-21,231c5,21,1,18-21-13
		c-38-54-55-100-55-148c0-73,34-120,125-175c13-7,16-15,9-26c-8-14-16-12-64,20c-63,43-145,155-180,248c-89,238-51,407,110,489
		c82,42,130,49,193,31c78-23,105-20,175,14c72,36,114,82,152,162c38,81,46,159,25,239c-29,108-29,106-2,123c54,36,168-16,212-96
		c19-36,19-39,2-105c-24-94-22-113,18-205c26-58,42-119,60-225c23-137,30-162,39-152c16,18,79,169,98,234c20,68,23,103,23,240
		c0,153-1,163-27,218c-63,134-217,246-380,277c-106,20-208-23-254-108c-35-63-39-108-15-165c28-66,9-104-83-161l-29-19l24,34
		c23,32,24,40,21,164c-4,157-13,204-53,261c-70,103-220,219-336,261C5839,9154,5691,9158,5627,9136z M6055,7376c64-79,55-155-16-126
		c-22,10-28,17-22,29c16,34,8,99-15,124c-12,13-22,27-22,30C5980,7449,6020,7418,6055,7376z"/>
	<path d="M7219,8577c-63-34-86-84-104-232c-33-264-80-390-229-618c-65-98-93-168-102-254c-4-32-17-83-29-113c-13-30-26-72-30-93
		c-8-42-16-42,85,5c74,34,197,75,253,83l45,7l37-61c21-34,39-61,41-61s26,45,54,100c112,224,130,312,110,548c-7,86-16,163-20,170
		c-4,8-11-3-19-30c-22-73-68-153-120-210c-58-63-238-209-222-180c12,23,77,82,159,145c69,52,117,119,152,212c20,54,23,79,24,241
		c1,202,5,215,70,232c69,19,142-19,182-94c20-36,53-46,55-16c4,62-15,108-69,165C7469,8599,7311,8625,7219,8577z"/>
	<path d="M2726,8570c-64-25-111-72-131-128c-20-61-19-89,4-102c17-8,21-5,30,23c21,64,84,107,156,107c38,0,52-5,76-29
		c16-16,29-40,30-53s2-102,3-198c1-169,2-177,28-230c34-69,91-131,188-205c76-58,112-94,132-130c6-11-9-2-34,20s-86,73-136,113
		c-99,80-145,141-183,239c-13,35-27,63-30,63c-4,0-9-21-12-47c-3-27-13-91-22-143c-22-121-17-271,13-352c11-31,55-116,97-188l78-131
		l28,67c42,100,41,99,140,79c104-21,171-46,229-85c25-16,51-30,58-30c20,0,14,56-14,121c-14,34-30,86-35,117c-17,99-38,148-100,234
		c-71,100-159,266-193,369c-13,41-30,121-36,179s-19,132-28,164C3023,8559,2874,8628,2726,8570z"/>
	<path d="M8240,8151c-36-116-74-179-132-221c-41-30-44-31-120-24c-128,11-190-25-256-149c-25-48-27-61-27-167c0-108,2-120,34-195
		c27-65,34-93,35-157c1-82,10-100,21-45c13,58,82,251,101,283c10,17,41,50,67,72c47,41,50,42,122,42c151,0,238,41,284,133
		c20,40,23,62,23,145c0,55-7,127-16,167c-17,72-82,215-97,215C8274,8250,8257,8206,8240,8151z M8145,7740c-11-18-71-40-133-50
		c-32-6-60-16-67-27c-15-20-31-12-21,12c7,20,48,35,95,35c20,0,57,10,81,23C8148,7757,8156,7758,8145,7740z"/>
	<path d="M1901,8193c-44-91-82-208-88-270c-11-117,30-235,96-280c47-32,92-43,200-50c89-6,97-8,131-39c53-48,85-114,124-258
		c20-71,38-131,41-134s5,11,5,31c0,55,20,137,46,188c82,164,66,349-41,467c-53,60-122,80-209,63c-36-7-73-10-84-7c-11,4-40,28-65,55
		c-39,41-50,64-81,164c-20,65-40,117-44,117C1927,8240,1914,8219,1901,8193z M2172,7714c88-19,108-29,108-57c-1-19-2-19-10-6
		c-11,19-40,31-127,55c-34,9-70,26-80,37l-18,21l28-18C2089,7737,2133,7722,2172,7714z"/>
	<path d="M3651,7735c-62-65-83-109-118-247c-21-82-26-124-24-206c1-57-2-101-6-99c-29,18-259,97-281,97c-38,0-112-46-177-109
		c-36-35-55-48-55-37c0,22-82,173-143,265c-68,101-97,169-111,259l-12,77l-13-78c-13-73-11-230,4-312c3-16-8,6-24,50
		c-17,44-31,94-31,110c-1,22-12,3-43-75l-41-105v-140c0-202,38-326,141-452c25-30,42-57,40-59c-3-3-29,19-59,48
		c-107,106-158,251-158,447c1,119,14,205,44,276l16,40l-36-40c-79-86-109-194-101-360c6-131,27-197,92-294c71-106,140-144,253-139
		c34,2,62,4,62,5s-11,19-25,39c-22,32-32,64-21,64c2,0,17-7,32-15c16-8,54-20,84-26s67-18,82-25c41-21,42-17,2,18
		c-43,38-81,95-90,135c-5,23-2,20,15-12c12-23,34-49,51-58c30-18,30-18,40,8c6,15,8,64,5,109l-5,81l15-65c14-61,39-110,61-117
		c5-2,20,45,34,105l25,107l7-58c15-116,55-168,163-213l40-16l-43,37c-23,20-47,46-54,58c-7,15,3,9,31-16c24-21,44-37,46-35
		c1,2-2,30-8,63c-11,64-2,195,14,195c5,0,9-19,9-42c1-56,30-119,68-146c16-12,61-36,99-54c37-18,72-34,76-36c5-2,5,4-1,14
		c-8,17-39,128-57,204c-5,23-5,24,4,3c17-38,61-55,227-88c20-4,120-103,162-160l21-30l1,150v150l45-68c28-45,49-91,59-135
		c8-37,22-85,30-107l16-40l-3,57c-1,31,1,54,6,51c4-2,7-9,7-14c0-6,15-33,33-62c19-29,41-73,50-97l17-45l-4,55c-2,31-15,84-29,118
		s-24,62-22,62s23-31,46-70c23-38,44-70,48-70s15,33,25,74c35,139,9,244-93,379c-66,89-310,267-364,267c-10,0-18-12-23-35
		c-9-52-33-114-34-89c0,12-6,27-14,33s-40,53-72,104c-54,85-59,97-62,160c-5,77,16,166,53,235c13,23,20,42,16,42
		C3706,7790,3679,7765,3651,7735z M2927,6888c-3-8-6-5-6,6c-1,11,2,17,5,13C2929,6904,2930,6895,2927,6888z"/>
	<path d="M6523,7744c62-123,72-255,23-299c-21-18-43-55-116-191l-28-52l-11,56c-6,30-11,66-11,79v23l-42-21c-169-86-354-270-416-412
		c-7-16-17-68-22-115c-5-48-12-109-16-136c-5-33-4-47,3-43c6,4,14,26,17,49c7,46,21,76,31,67c3-4,8-52,12-108c6-99,7-101,19-66
		c7,20,22,43,33,51s38,45,61,82c22,37,40,65,40,62s-9-34-20-70c-23-76-23-73-10-65c14,9,51,135,45,155c-3,9,13,52,34,95l40,80l-6-61
		c-3-34-2-101,2-150c6-72,10-86,19-71c101,165,119,179,257,213c103,25,139,43,139,72c0,9,2,13,5,10s-6-53-20-111
		c-14-59-25-109-25-111c0-9,105,35,140,58c53,35,81,85,88,159c4,48,7,56,13,37c12-42,9-163-5-202c-8-21-11-38-8-38s20,12,39,26
		c53,41,52,19-2-31c-26-25-44-45-39-45s38,15,74,33c81,42,106,82,116,182l7,69l23-69c25-75,30-130,14-140c-5-3-10-11-10-17
		c0-19,42,25,56,59c8,18,14,52,15,75c1,38,3,34,13-27c16-91,30-119,56-105c35,19,61,68,68,128c6,55,6,56,12,20c4-21,3-66-2-100
		c-8-52-16-70-46-102c-21-21-30-36-22-33c80,31,167,70,179,80c24,20,5-52-21-80c-12-13-19-26-15-29c9-9,127-10,170-1
		c50,11,135,95,170,169c45,96,60,178,55,313c-4,105-9,130-37,199c-28,71-67,134-82,135c-3,1-2-20,3-46c34-194,40-243,34-329
		c-7-104-34-222-66-286c-30-59-98-128-127-128c-30,0-29,14,2,28c41,19,80,86,118,199c59,177,63,289,17,523l-20,105l4-75
		c3-41,2-95-2-120l-7-45l-18,90c-11,50-25,101-32,115l-13,24l-15-36c-19-46-70-120-126-186c-44-52-116-153-123-174c-2-6-26,12-52,40
		c-63,67-142,107-193,97c-57-10-113-36-123-56c-8-15-15-16-35-9c-16,6-41,5-75-4c-51-13-52-13-45,8c3,11,9,64,12,116
		c4,85,1,106-26,200c-33,113-79,192-140,239l-34,26L6523,7744z"/>
	<path d="M7421,7669c-17-85-44-154-88-225c-109-177-133-221-133-244c0-20,8-13,43,41c23,37,55,80,70,95c34,34,104,149,123,202
		c14,39,17,145,5,175C7436,7726,7430,7713,7421,7669z"/>
	<path d="M5157,7671c-17-83-2-215,34-299c31-72,91-144,166-201c65-48,93-61,93-43c0,5-27,47-61,93c-84,117-164,269-190,364
		C5166,7707,5165,7710,5157,7671z"/>
	<path d="M5036,7662c-3-5-9-35-15-68c-17-108-74-223-175-359c-99-131-95-142,18-66c167,113,223,235,201,436
		C5059,7664,5049,7683,5036,7662z"/>
	<path d="M2171,7473c-19-122-34-193-42-193c-3,0-26,9-50,19c-68,30-143,35-224,16c-145-33-293-132-364-243c-34-54-39-71-14-51
		c12,11,51,14,157,13c168-1,250-15,331-54c70-34,216-166,289-261l50-64l-91,87c-74,71-133,113-205,146c-13,6,44-163,83-247
		c32-69,53-98,112-154l72-69l-80,49c-44,27-90,56-102,63c-60,38-79-81-30-183c41-82,137-167,229-201c39-15,92-30,117-34l46-6l-68-7
		c-37-4-81-3-98,1c-31,9-133,73-144,90c-3,6-10,10-16,10c-11,0-12-122,0-172c9-37,8-38-18-38c-158,1-308,81-375,201
		c-27,47-33,15-11-54c33-102,68-161,144-241c42-44,63-70,46-59c-42,30-118,111-143,154c-12,20-33,66-47,104c-31,82-49,275-35,375
		c11,77,6,88-12,28c-13-43-13-43-18-13c-6,29-7,29-33-29c-55-116-80-305-58-431c49-277,281-548,501-584l55-9l-63-1
		c-72-1-114,16-203,85c-174,133-293,346-321,574c-5,47-8,107-4,134c9,77-10,41-33-64c-34-156-43-273-31-412c11-127,19-163,64-282
		c76-201,278-366,468-382c52-5,82-3,99,6c23,13,23,12,9-5c-8-10-37-28-65-40c-87-38-133-40-313-9l-33,5l26-52c15-28,58-83,96-120
		c39-38,65-69,58-69c-6,0-64,53-128,118c-123,124-125,125-40,19c54-69,138-139,168-142c9-1,47-16,85-34c45-22,78-32,97-29
		c34,5,39-9,7-21c-54-20-221,48-305,123c-51,46-56,53-168,225c-159,245-301,335-475,303c-146-27-260-86-422-218c-47-38-64-46-97-46
		c-44,1-90,21-122,55l-21,22l7-25c11-42,58-103,95-124c49-29,155-26,290,8c179,44,249,34,341-51c31-30,72-77,90-106
		c99-158,146-222,209-281c87-82,152-115,255-132l80-12l-81-1c-105-1-201,31-402,135c-137,71-155,77-209,77c-34,0-71-6-89-16
		c-44-23-91-80-105-126c-10-34-9-44,5-66l17-26l30,25c17,14,55,33,84,41c84,25,116,11,225-92c102-98,139-122,235-158
		c64-25,241-55,317-55c29,0,41-6,54-25c9-14,14-28,11-32c-3-3-43,2-87,11c-65,13-90,14-123,5c-111-30-202-140-233-284
		c-37-171,7-310,114-357c55-25,145-27,187-5c45,23,92,78,100,115l7,34l-26-17c-81-54-172,79-110,162c45,60,115,74,217,44
		c116-36,120-38,208-129c122-125,121-123,58-105c-65,19-142,5-241-44c-79-40-118-86-149-181c-28-85-23-151,24-277
		c20-55,50-143,66-196c48-156,126-272,261-392c154-137,361-234,586-276c60-11,143-27,184-36c92-21,173-15,270,19l71,24l32-35
		c78-87,208-160,301-170c76-8,137,9,333,93c154,66,180,74,236,74c91,0,114-27,142-169c15-70,15-93,5-144c-16-85-51-158-100-211
		c-24-25-39-46-34-46s34,13,64,28c46,23,59,35,83,81c22,46,27,67,27,132c0,129-31,247-84,318c-71,95-86,222-40,338
		c33,83,38,90,72,95c15,3,35,9,44,13c27,11,22-8-17-56c-44-56-67-125-68-203c0-81,18-120,97-206c96-105,136-194,136-305
		c-1-114-86-205-262-279c-57-24-76-28-140-24c-75,4-116,20-283,111c-56,30-66,32-160,32c-94-1-105-3-185-39c-109-49-137-53-188-27
		c-56,28-95,80-137,180c-71,167-117,213-261,256c-94,29-261,35-317,11c-65-27-128-132-133-221c-2-46-5-50-28-53c-15-2-51,4-82,13
		s-58,15-59,13c-2-2,3-17,10-34c16-38,67-78,124-99c94-33,157-8,220,88c54,83,106,113,183,104c119-14,182-82,294-312
		c90-184,147-272,212-323c59-47,145-83,211-89c50-5,61-3,80,16c28,28,27,66-4,103c-57,68-16,123,90,122c48-1,76-8,140-38
		c88-42,204-71,249-62c28,6,29,5,12-13c-24-26-56-115-56-154c0-46,45-130,86-162c85-65,225-103,338-91c171,17,315,88,361,176
		c24,46,23,115-2,148c-45,60-151,67-182,10c-15-27-11-45,21-90c10-13,7-23-13-52c-28-42-86-72-156-82c-60-7-86,4-109,48
		c-40,77,32,216,155,301c111,76,185,163,217,257c26,75,26,293,0,395c-22,82-78,210-107,241l-21,22l24,7c74,23,168,112,168,159
		c0,15-12,8-53-31c-72-68-104-83-178-83c-61,0-64,1-105,45c-48,49-84,144-84,219c0,23-5,47-11,53c-7,7-8,17-1,29c5,11,13,42,17,71
		c4,30,13,54,21,57c11,4,14-13,14-97c1-164,22-200,143-244c71-26,136-29,175-9c27,14,77,66,154,159l38,45l-37,7c-20,3-49,20-66,36
		c-28,29-29,33-24,95c4,59,3,63-10,45c-21-30-28-115-13-151c12-28,11-33-10-56c-34-36-88-47-161-34c-34,6-64,9-67,6s9-28,26-56
		c24-39,27-48,13-40c-34,18-71,71-86,125c-21,69-17,188,6,193c12,2,14-5,11-32c-10-82,53-153,144-164c36-4,47,0,68,21
		c22,22,26,35,26,87c0,78,19,124,56,137l29,10v-74c0-68,2-77,25-95c19-15,35-19,67-15c31,3,46,0,56-12c30-33,45-79,55-160
		c10-85,15-97,42-103c11-2,15,6,16,32c1,19,2,62,2,96c2,53,6,67,37,108c33,43,39,46,81,46c63,0,94,32,94,96c0,30-6,54-17,66
		c-15,17-15,18,4,18c36,0,73-51,83-118c15-92,25-111,67-129c101-41,190,29,181,142c-2,35,0,44,10,40c8-3,16-5,18-5s4-37,4-83
		c0-130-32-209-92-230c-24-9-22,3,7,43c34,46,33,63-2,53c-54-15-141-8-171,14c-25,19-27,27-34,113c-8,116-28,146-28,42
		c0-63-3-73-23-86c-32-21-100-30-125-17c-19,10-22,8-33-26c-6-21-15-108-18-193c-6-113-13-167-25-197c-10-24-20-43-23-43
		c-9,0-43,45-64,84c-15,27-24,71-30,145c-10,113-25,198-37,218c-12,18-36-62-58-185c-21-126-15-161,52-272c24-41,60-108,80-147
		c19-40,41-73,48-73s23,26,35,57c12,32,39,85,60,118c97,153,105,186,82,312c-15,79-23,99-50,127c-33,34-40,56-17,56
		c15,0,54-44,98-109c15-22,46-53,69-68c35-23,52-27,108-27s79,6,144,36c52,25,80,45,86,60c5,13,12,76,16,141c5,80,11,117,19,114
		c6-2,12-27,14-55c3-48,6-53,50-86c26-19,56-44,66-55l19-20l27,37c42,58,61,70,120,77c80,10,90,18,90,70c0,33,4,45,15,45
		c18,0,35-31,35-63c0-31-43-77-72-77c-13,0-29-4-37-9c-11-7-7-13,17-25c71-36,132-8,132,62c0,54-18,112-48,151c-28,37-28,37,37,73
		c44,24,103,122,131,214c19,65,22,92,17,166c-3,48-2,88,3,88c12,0,18-22,25-96c10-115-38-249-127-348c-40-45-48-60-39-69
		c18-17,70,45,118,139c29,57,43,74,59,74c12,0,41,7,65,15c24,9,52,14,62,11c29-7,19,14-27,58c-60,56-74,82-82,147l-6,55l58-4
		c99-6,97-9,105,231c3,113,9,209,12,214s11,47,16,93c10,73,15,89,50,134c69,91,123,137,211,180l85,41h240c190,0,246,3,270,15
		c57,27,104,60,114,77c8,17,2,18-77,19c-92,1-191,23-212,49c-15,18-11,18,63,4c70-12,153-1,292,40c54,17,100,29,101,28
		c2-1-30-42-69-90c-78-94-148-150-297-239c-126-75-192-103-303-128c-262-60-330-86-398-150c-39-37-63-99-57-148c4-34,30-47,136-65
		c72-12,88-19,113-46c72-79,196-79,292,0c33,27,37,36,37,75c0,56-19,93-70,137c-46,39-159,77-229,77c-54,0-141-44-208-106
		c-36-33-49-41-51-29c-9,43,106,133,199,155c133,32,319-34,380-134c38-62,14-170-48-214c-48-33-126-63-180-69c-63-7-116,21-138,73
		c-15,38-19,38-124,28c-58-6-61-8-61-33c0-59,8-66,98-95c98-32,187-74,249-119c39-28,47-29,105-24c77,6,166,46,215,95
		c67,66,113,200,113,327c0,63-4,87-20,113c-19,31-24,34-64,30c-50-3-50,7,1,29c31,12,38,12,59-2c14-9,33-30,43-46l19-31l12,39
		c16,48,35,70,85,95c80,42,153,17,171-57l7-30l-35,38c-40,42-65,46-127,21c-47-18-67-54-76-134c-10-89-35-208-52-248
		c-30-74-83-148-138-192c-30-25-55-49-55-53c0-12,98-53,159-66c29-6,99-14,155-18c86-5,114-2,191,18c66,17,119,23,200,23
		c101,1,115-1,168-27c68-34,88-61,95-126c10-113-74-269-232-426c-104-103-136-124-286-183c-56-22-81-26-180-26c-105-1-120,1-173,26
		c-32,15-77,42-100,60c-62,48-185,173-162,164c182-69,294-79,380-34c78,41,245,170,245,189c0,3-42,6-92,5c-166-2-214,23-435,228
		c-325,302-479,369-572,250c-24-31-25-27-9,84c7,57,8,86,1,93s-13-25-17-100l-8-110l-46-15c-25-9-58-16-74-16c-15,0-28-5-28-11
		s37-63,81-126c96-135,128-215,129-316c0-111-16-154-79-218c-46-45-67-58-116-72c-66-18-335-42-366-32c-11,4-29,26-40,51
		c-12,24-28,44-36,44s-33-20-55-45c-23-25-47-45-55-45c-16,0-16,5,2-55c32-103,16-224-40-305c-41-60-54-104-65-224
		c-13-135-3-210,35-268c28-42,56-62,99-72l28-7l-36,42c-20,23-50,79-67,123c-27,70-31,94-31,176c0,110,13,162,51,209l27,33l60-12
		c32-7,109-35,169-62c230-105,318-128,407-108c107,25,288,141,288,185c0,24,18,26,59,6c60-31,160-44,248-31c41,5,78,12,82,14
		c4,3,71,14,149,25c78,12,170,30,205,42c142,47,291,146,436,289c95,95,143,173,182,295c15,50,42,133,59,185c68,210,71,223,65,279
		c-13,120-82,209-194,252c-68,26-207,37-240,19c-21-11-22-10-16,12c10,32,64,123,97,161c35,40,27,10-13-51c-30-45-14-46,26-2
		c89,98,275,163,372,130c40-15,75-64,81-116c4-39,1-47-31-79c-38-38-71-44-103-20c-45,34-34,4,29-78c39-51,76-68,148-68
		c45-1,74,6,113,25c87,43,126,117,126,241c0,177-96,332-239,386c-55,21-58,21-151,5c-117-20-110-21-110,8c0,21,6,24,48,29
		c339,41,459,84,586,209c79,78,125,105,189,114c54,8,127-22,153-61l17-26l19,30c16,25,17,36,9,68c-17,64-73,120-138,139
		c-79,23-120,13-263-65c-199-109-265-133-390-138c-58-3-102-3-99,1c3,3,38,10,79,16c77,11,158,47,223,101c37,31,119,149,197,286
		c112,196,228,241,455,178c128-36,250-40,310-10c43,21,85,82,85,123c0,23-1,22-26-7c-14-17-41-35-61-40c-44-12-61-4-175,82
		c-100,77-169,117-263,153c-58,23-87,27-170,28c-90,1-106-2-155-26c-30-15-72-41-93-59c-43-36-135-148-189-230
		c-54-84-173-223-216-252c-69-48-152-80-210-81c-36-1-56,3-59,12c-3,8,9,12,40,12c56,0,143,44,229,115c56,47,128,131,128,151
		c0,4-42-33-93-82s-108-98-127-108c-40-22-36-18,44,50c59,49,126,128,126,148c0,7-43,11-133,11c-129,0-135,1-175,28
		c-44,28-60,57-20,36c40-22,141-5,231,38c191,92,314,295,355,582c19,136,9,274-33,447c-32,129-47,154-39,63c13-139-44-355-130-492
		c-55-89-228-260-289-287c-31-13-52-16-82-11l-40,8l40,7c105,21,261,145,346,274c78,119,120,277,120,454c0,120-16,201-59,301l-29,69
		l-6-64c-12-136-38-316-53-368c-24-83-77-178-139-245c-69-77-71-62-2,24c29,36,63,82,75,102c32,53,72,165,72,202c0,32,0,32-30-19
		c-59-105-149-156-298-173c-63-6-72-5-67,8c3,8,9,58,12,110l6,96l-45-42c-72-66-94-73-205-72l-98,1l66,12c113,21,224,90,277,174
		c52,82,73,212,37,238c-16,12-26,7-89-36c-39-27-72-47-74-45s18,30,45,62c28,32,62,78,76,103c25,44,101,270,93,277
		c-9,9-130-73-209-142c-48-42-87-74-87-72c0,3,35,43,78,90c82,91,224,204,290,230c120,48,385,61,475,24c20-9,37-12,37-8
		c0,20-67,105-118,149c-110,95-204,142-322,161c-74,12-137,2-210-33c-35-17-52-21-55-13c-10,32-45,223-45,248c0,37-10,36-49-3
		c-36-37-55-92-100-290c-56-249-122-398-225-506c-60-63-111-91-227-126c-139-42-313-102-350-122l-34-18l30-9c52-15,138-80,162-122
		c41-73,25-154-41-212c-43-38-44-43-11-43c44,0,119-31,173-72c29-22,77-50,105-63c86-38,109-81,87-162c-15-51-95-145-151-177
		c-28-15-24-9,23,37c31,30,66,74,77,96c26,50,27,113,4,137c-16,16-18,14-34-39c-22-75-49-107-144-171c-44-30-96-71-115-91
		s-74-56-122-80s-111-62-139-85c-50-39-256-146-265-137c-7,7,17,22,106,69c47,24,101,59,120,77c33,30,94,73,164,116l30,18l-24,19
		c-45,37-111,1-190-102c-30-39-63-81-72-93l-17-22l-1,33c0,17-3,32-6,32s-32-16-65-36c-63-40-64-40-163-4c-43,16-70,19-100,14
		c-104-17-186-97-186-180c0-22,2-21,38,18c48,54,141,98,205,98c42,0,53-4,79-32c34-36,24-47-21-24c-16,9-51,16-76,16
		c-42,0-51-5-94-48c-39-39-54-65-81-141c-29-81-38-96-74-121c-23-16-55-41-72-57c-135-121-197-165-329-232c-73-37-75-37-92-19
		c-23,26-8,38,92,73c114,39,184,91,234,175c38,64,22,63-48-2c-75-71-143-109-236-133c-70-17-277-45-287-38c-13,7-9,112,6,148
		c19,46,60,69,149,85c93,16,119,30,157,85c56,81,58,201,5,271c-28,36-75,51-122,39c-42-10-60-31-89-106c-18-50-36-77-60-96
		c-43-32-55-24-21,16s50,94,43,137c-9,43-22,44-30,1c-9-50-56-88-123-100c-44-9-49,13-12,56c16,18,39,49,51,67c31,44,113,70,228,73
		c105,2,146-15,181-76c34-60,34-182,0-247c-41-77-80-106-191-140c-70-22-103-37-111-51c-6-12-9-23-6-25c3-3,60-6,128-7
		c119-2,126-1,171,25c59,35,124,109,155,176c21,45,25,65,22,131c-5,105-24,130-168,226c-87,58-121,75-140,72c-13-3-43,2-65,10
		c-23,8-91,17-152,20l-111,6l-7-61c-8-73-32-111-106-169c-94-73-139-121-163-173l-24-51l-22,60c-18,49-33,70-78,108
		c-155,131-183,168-183,243v40h-102c-63-1-118-6-143-15c-22-8-54-15-72-15c-48,0-111-31-201-100c-99-76-125-120-123-211
		c0-42,8-75,26-114c32-67,112-157,172-192c41-24,51-25,122-20c91,7,113,14,109,35c-3,18-29,32-101,57c-73,26-138,75-172,129
		c-27,44-30,58-30,130c0,147,58,206,200,206c80,0,173-20,209-44c30-19,106-128,106-152c0-14-8-16-51-12c-65,7-100,33-120,91
		c-14,41-16,44-27,26c-22-35-9-105,31-162c30-43,14-42-25,1c-20,22-45,66-58,98c-27,72-43,92-86,100c-89,17-144-44-144-158
		c0-134,89-237,205-238c11,0,43-11,71-24c39-18,54-31,63-56c11-33,16-160,6-160c-27,0-264,43-294,54c-59,20-118,58-196,124
		c-38,33-72,59-74,57c-8-9,51-94,91-132c54-49,114-85,190-113c66-24,77-36,55-57c-13-13-24-9-103,38c-120,71-177,112-255,180
		c-36,31-86,71-112,88c-55,38-74,64-111,152c-57,137-167,202-254,149c-43-26-56-26-41,1c17,33,94,62,141,55c59-10,132-51,190-107
		c28-27,52-48,54-46c9,9-29,96-56,129c-38,46-121,88-174,88c-22,0-75-12-117-27l-78-28l-46,33c-52,37-55,37-55,17c0-24-30-17-39,8
		c-5,13-33,50-63,82c-77,85-173,124-229,94c-18-9-13-14,48-43c37-18,93-56,124-84s100-81,153-117s93-65,89-65c-22,0-145,75-208,126
		c-43,34-117,79-190,114c-87,41-124,64-134,83c-8,15-21,29-30,32s-50,31-91,63c-75,58-120,117-120,159c0,30-15,37-35,16
		c-33-33,6-166,68-232c24-25,26-31,10-22c-31,16-88,98-107,154s-20,73-5,115c9,26,30,41,127,93c65,34,125,70,135,80
		c13,14,32,19,67,19c38,0,50,4,50,15c0,8-5,15-10,15c-6,0-24,21-40,47c-47,73-40,155,18,216c32,34,103,72,152,81c26,5,20,1-24-18
		c-75-32-111-66-126-122c-32-113,14-209,110-231c29-6,57-16,63-22c13-13,19-12-108-15c-117-3-188-25-246-74c-37-32-39-36-39-93
		c0-80,18-112,79-141c31-14,50-30,51-40c0-9,4-19,8-22s53,13,108,36c135,55,209,61,290,24c57-26,104-61,104-77c0-5-34,10-76,33
		c-73,39-78,40-147,36c-51-3-87-13-123-31c-75-38-86-51-72-85c7-15,13-29,15-31c1-2,24,7,50,20c73,36,152,33,224-9l56-32l34,26
		c19,15,72,45,119,67c79,38,93,41,185,45c77,3,110,0,139-12c47-19,44-30-5-16c-55,16-152,12-220-10c-48-15-84-36-144-86
		c-44-37-81-67-82-68s30-16,69-33l70-32l-6,24c-3,14-9,36-12,49c-5,21-1,25,43,40c144,47,169,44,305-35c132-76,217-96,205-48
		c-4,15-2,16,12,7c20-12,77,13,152,68c26,19,59,34,73,34c38,0,117,21,141,37c19,13,19,13-2,13c-12,0-53-7-91-15
		c-131-27-187-5-299,120c-32,36-103,97-158,137s-131,104-169,141c-59,59-68,65-62,40c6-23,29-76,54-126c5-9-79,51-152,108
		c-48,39-66,69-80,135c-5,23-9,25-58,24c-44,0-61,5-102,33c-26,18-58,34-70,35c-90,6-126-24-126-105l-1-52l-24,28
		c-79,90-22,167,123,167c65,0,82-4,155-40c78-39,82-40,91-21c13,29-1,86-29,119c-30,36-127,88-180,97c-22,4-98,28-170,55
		c-71,26-177,62-235,80c-182,56-215,70-273,116c-61,47-105,101-142,174c-39,77-103,280-125,400c-34,177-48,220-85,257
		c-18,18-37,33-43,33C2187,7550,2177,7515,2171,7473z M1997,7123c39-18,153-119,153-135c0-6-17,5-38,24c-85,77-133,102-202,107
		c-45,3-59,6-45,12C1899,7144,1960,7141,1997,7123z M8380,7121c0-5-23-7-53-4c-66,7-134-20-224-89c-73-55-82-50-20,9
		c74,73,120,93,215,93C8343,7130,8380,7126,8380,7121z M3259,6107c6-8,8-17,4-20c-10-11-51-8-58,3C3188,6117,3238,6132,3259,6107z
		 M3505,6040c4-6-10-10-37-9c-55,2-121-25-153-63c-37-44-32-108,8-108c31,0,240,51,254,62c12,9,76-12,86-28c3-5-36-10-86-10
		c-69-1-113-8-176-28c-92-28-136-33-147-14c-11,17-7,104,6,127c19,37,123,79,197,80C3480,6050,3502,6045,3505,6040z M2621,5992
		c-56-80-53-193,10-307c59-109,77-127,130-134l44-6l-74-44c-81-48-141-103-167-153l-17-33l23,20c13,11,39,35,59,53s66,53,102,78
		c58,40,75,47,130,51c43,3,77,0,104-10l40-15h-56c-137,0-210-33-281-129c-48-65-81-144-98-231c-18-91-3-149,74-289l65-118l-67-5
		c-45-4-86-15-122-33c-30-15-94-36-142-47c-47-10-110-31-140-45l-53-27l30,31c81,86,226,148,374,159l84,7l-37,40
		c-38,42-114,181-136,250c-24,77-53,121-124,190c-39,39-84,93-100,120l-29,50l38-39c51-52,145-94,145-66c0,6-7,10-16,10
		c-22,0-98,54-118,84c-19,29-11,34,15,10c10-9,36-18,59-21c34-5,45-2,66,18c13,12,29,39,35,60c11,36,12,36,31,17c24-24,73-21,73,5
		c0,9,15,26,33,37c35,22,39,40,20,101c-17,58-68,111-142,148c-58,30-72,33-117,28c-29-4-69-15-90-25c-38-19-39-19-45,1
		c-4,11-1,23,7,28c35,22,129,51,201,61l80,11l33,52c28,44,68,85,83,85C2640,6020,2632,6007,2621,5992z M7639,5973c17-21,39-48,48-61
		c13-16,45-30,108-46c50-14,111-33,137-43c41-16,45-20,34-36c-12-16-16-16-51-1c-108,45-252-7-321-117c-38-60-28-125,25-173
		c20-18,22-18,41-1c19,18,20,17,20-4c0-63,126-125,173-84l21,18l-20-35c-11-19-38-45-60-57c-33-19-35-23-16-23c38,0,94,31,140,78
		c23,24,42,41,42,37c0-26-78-129-125-165c-77-60-99-88-130-172c-48-126-118-258-160-300l-40-40l35,7c119,26,299-29,397-121
		c41-39,44-43,17-30c-17,8-68,24-115,36c-46,12-119,34-161,51c-43,16-92,29-110,30s-43,4-56,7l-22,7l20,35c55,96,110,216,116,258
		c22,145-100,379-230,442c-32,15-62,20-126,20c-67,0-82,3-72,13c9,8,44,12,100,12h87l70-50c39-27,96-74,128-104c31-30,57-50,57-45
		c-1,5-20,34-43,64c-36,45-105,102-204,167c-15,10-10,11,29,10c58-2,78,15,153,128c45,67,55,90,60,140c7,64-10,132-42,167
		c-15,16-15,18,0,18C7602,6010,7623,5993,7639,5973z M2750,5225c-10-44-21-89-26-100c-7-18-6-18,9-7c9,8,29,34,44,58l28,43l125-5
		c190-8,200-10,292-65c152-92,287-149,354-149c25,0,28-7,18-34c-7-17-44-22-60-7c-5,5-99,51-209,101c-224,103-255,109-359,75
		c-114-37-175-106-206-234l-16-65l-48,82c-61,104-70,136-62,205c10,79,42,137,91,162c22,12,41,21,42,21
		C2767,5305,2760,5269,2750,5225z M7464,5282c57-39,76-70,88-144c14-82,6-112-59-223l-48-80l-7,69c-15,155-134,247-323,250
		c-44,1-71-9-197-72c-160-79-284-132-309-132c-15,0-35,28-26,36c2,2,27,8,56,14c76,14,170,54,316,134l130,71h144h145l34-45
		c19-25,38-46,42-48c9-3-19,156-31,181C7406,5317,7418,5314,7464,5282z M6478,5158c29-29,7-78-34-78c-28,0-38,28-25,64
		C6430,5172,6458,5178,6478,5158z M3756,5143c27-35,10-80-25-68c-27,8-44,40-36,65S3738,5166,3756,5143z M3132,5064
		c40-20,95-43,123-51c27-8,75-29,105-46l55-31l-42-8c-48-8-117-49-133-78c-23-43,26-185,102-299c31-45,143-171,153-171
		c3,0-4,15-15,33c-25,44-50,144-50,205c0,100,54,222,112,253c16,9,30,2,85-40c36-28,71-51,77-51c48-1,154-24,186-40
		c65-33,134-112,260-300c37-54,62-69,116-70c55,0,106,19,195,73c102,62,172,81,273,75c90-6,156-28,156-53c0-27-26-27-79-1
		c-28,14-64,26-81,26c-60,0-168-31-194-55c-30-28-35-52-8-39c24,12,152,13,247,3c85-9,110-2,147,45l17,21l46-23c79-38,85-35,85,58
		c0,44,4,80,9,80s16,3,25,6c14,5,16-6,16-80c0-97,5-102,75-69c36,17,37,17,87-11l51-29l148,5c121,5,152,3,169-9c29-20,38-8,19,25
		c-19,36-102,64-195,66c-61,1-76-3-111-26c-41-27-42-27-65-8l-23,19l49,22c63,27,154,35,241,20c51-9,96-27,178-73
		c85-48,120-62,161-66c67-5,88,6,129,71c19,29,42,59,52,67s42,44,70,80c113,141,159,172,268,185c47,6,67,15,105,47
		c85,70,112,62,166-52c27-58,30-74,29-157c-1-94-15-175-40-228c-27-56,136,123,166,183c36,72,81,206,81,242c0,37-32,75-92,109
		l-50,29l64,36c36,20,70,36,76,36s48,18,93,40c46,22,91,40,100,40c27,0,73-147,64-203c-10-59-50-157-104-256c-44-80-50-87-141-146
		c-117-78-191-151-277-278l-67-98l-12,34c-21,61-53,114-84,140c-30,26-30,27-19,72c24,95-7,233-62,279c-16,14-29,27-29,30
		c0,12,109,5,150-9c51-18,53-18,44-4c-16,26-110,59-168,59c-107,0-223-80-241-167c-5-24-3-22,16,12c23,44,58,85,71,85
		c17,0,58-78,68-130c14-72-1-151-52-284c-21-56-70-195-109-310c-68-204-87-252-95-244c-2,2,18,69,45,149c27,79,52,157,55,173
		c7,29-32,216-45,216c-3,0-18-50-33-111c-27-107-77-263-88-274c-3-4-4,22-1,57c4,52,0,81-26,166c-18,56-36,100-42,97c-5-4-9-29-9-56
		c0-43-19-141-38-199c-2-8-15,26-27,75c-26,103-59,185-75,185c-5,0-10-7-10-15c0-21-10-19-38,8c-23,20-25,21-17,2
		c14-38,16-100,3-148l-13-48l-55,83c-59,88-95,114-84,59c7-32-30-171-45-171c-5,0-14,14-21,31s-33,61-57,97l-43,66v-34
		c0-19-10-71-23-116l-22-81l-45,98c-25,54-48,92-51,86c-4-7-9-32-13-57c-6-41-94-249-106-250c-5,0-56,207-69,280l-7,45l-17-70
		c-9-38-26-94-37-123s-20-65-21-80c0-15-4-36-8-47c-15-35-107,167-135,298c-6,26-9,23-45-45c-21-40-41-86-46-103c-7-29-8-29-25,25
		c-10,30-19,74-19,97c-2,78-10,79-60,7c-25-37-53-80-62-97c-22-41-29-24-36,83c-3,50-9,90-12,90c-9-1-71-85-91-126l-19-36l-8,39
		c-4,21-7,64-7,96c1,31-2,57-6,57c-23,0-75-130-86-212l-7-53l-20,45c-16,35-21,66-20,137c0,92,0,93-18,65c-39-66-62-150-56-211
		c5-62,53-184,68-175c5,3,9,28,9,56v51l21-27c24-31,39-33,39-6c0,11,5,20,10,20c6,0,10-17,10-37c0-34,32-123,44-123c2,0,19,42,37,93
		l34,92l7-54c9-58,35-111,55-111c6,0,21,19,33,43c11,23,31,57,45,76l25,34v-40c0-46,20-154,30-166c4-5,22,21,40,57
		c31,62,50,76,50,38c0-43,70-156,86-140c3,3,8,38,11,77s9,71,13,71c9,0,90-87,110-119c15-23,16-22,34,53c10,42,21,76,26,76
		c4,0,13-12,19-28c6-15,23-41,36-57c24-29,25-29,36-11c20,33,70,77,80,71c5-4,10-23,10-43c1-20,4-50,8-66c6-29,8-27,55,52
		c28,45,53,82,56,82s14-31,23-69c17-65,39-103,50-84c16,30,29,112,25,162c-2,33-1,58,4,55c4-3,8-13,8-23c0-35,81-143,97-128
		c3,4,9,46,12,94c7,86,7,87,18,49c12-39,53-106,65-106c9,0,19,35,28,95l7,50l22-50c42-93,53-115,61-115c13,0,42,77,49,131l6,54
		l17-40c9-22,23-49,31-59c14-19,16-17,35,27c12,26,25,47,30,47c14,0-5-136-29-208c-18-55-33-78-83-127c-96-96-219-141-358-132
		c-92,6-149,31-225,100c-57,52-118,77-169,70c-19-3-57-28-100-65c-112-98-217-132-343-110c-186,32-299,125-351,290
		c-10,31-40,107-65,167c-26,61-58,153-71,205s-29,108-36,124l-11,28l-20-38c-12-24-22-67-25-110c-5-79,7-125,64-251
		c45-98,43-104-5-18c-21,39-60,131-86,205s-67,173-91,220c-57,113-78,195-72,285c5,66,37,155,56,155c13,0,70-63,81-90l10-25v27
		c2,67-118,146-235,156c-69,5-115-7-164-43c-40-29-40-29,24-10c27,8,70,15,95,15c42,0,44-1,26-14c-11-8-32-36-45-62
		c-21-41-25-63-24-134c0-59,5-96,17-119c16-33,16-35-2-55c-24-27-55-89-71-142l-12-41l-90,119c-100,131-176,205-265,257
		c-97,58-123,81-167,150c-67,103-99,193-100,276c-1,79,28,185,51,185C3054,5100,3093,5084,3132,5064z M4713,4977c23-44,30-70,30-115
		c0-58-18-142-31-142c-4,0-7,46-7,103c0,109-19,172-68,226l-22,25l34-20C4671,5042,4693,5015,4713,4977z M5495,5018
		c-32-60-48-148-41-227l6-66l-17,30c-39,68-14,224,46,284C5520,5070,5521,5065,5495,5018z M3022,4684c29-15,72-82,47-72
		c-145,57-209,108-116,93C2976,4701,3007,4691,3022,4684z M7280,4687c0-8-19-19-42-26c-45-14-98-43-123-68c-13-13-15-12-15,5
		c0,29,42,85,70,93C7216,4704,7280,4701,7280,4687z M4184,4525c32-14,79-29,105-32l46-7l-60-27l-60-28l-58,62c-63,68-100,120-56,80
		C4114,4561,4151,4539,4184,4525z M6035,4500c-63-64-95-84-95-61c0,4-20,16-45,25c-25,10-45,22-45,27s22,9,50,9c55,0,132,23,170,51
		C6114,4584,6106,4571,6035,4500z M2576,4465c159-44,197-49,254-36c47,10,65,6,40-9c-35-22-124-40-199-40c-94,0-102-10-47-58
		c64-56,105-62,367-60l235,3l74-37c86-42,180-123,233-200s67-164,64-403c-3-236,1-248,82-253l53-3l-6-50c-10-74-22-93-87-135
		c-32-21-59-40-59-44c0-5,89-31,153-45c20-4,36-19,55-51c15-24,46-74,70-110c23-35,42-72,42-82c-1-30-59,46-95,125
		c-33,69-35,71-77,78c-24,4-69,17-100,30l-58,23l-26-57c-38-79-41-152-11-216l23-50l29,44c34,50,47,38,16-15c-32-54-25-62,19-19
		c30,29,40,35,40,22c0-41,39-95,86-117c40-20,50-21,85-11c43,13,53,27,63,86c4,22,14,54,23,71c16,31,15,33-11,75c-15,24-45,69-67,99
		c-50,69-79,161-79,250c0,76,6,100,25,100c9,0,10-11,3-47c-12-63-3-122,34-213c36-92,80-154,140-199l46-35l-28-26
		c-32-30-50-84-50-150c0-58,8-70,59-81c36-8,48-6,76,11c18,11,35,20,39,20c15,0,4-32-21-60l-28-31l-150,11c-177,13-223,22-288,58
		c-98,53-147,144-147,274c0,112,39,194,176,366c19,24,34,47,34,51s-18,13-40,20c-22,6-47,22-54,34c-8,12-22,69-30,126
		s-18,106-21,109s-5-19-5-49c0-52,8-95,25-148c7-22,3-21-36,13c-41,36-47,38-95,33c-31-3-80-20-124-42c-96-48-283-191-401-307
		c-52-50-112-104-133-120c-59-42-135-61-246-60l-95,1l55-51c82-75,164-134,215-154c69-26,182-14,292,30l86,34l-94-94
		c-155-156-275-203-451-176c-183,29-360,148-493,333c-75,104-110,173-125,245c-11,51-10,59,12,101c17,34,37,53,77,76
		c76,43,157,46,325,13c72-14,158-26,192-26c116,0,382,58,369,81c-4,5-31,27-61,49c-108,80-178,212-208,392c-9,54-20,108-25,122
		c-26,67-130,91-172,39l-21-28l7,25c4,14,17,36,29,48c18,20,28,23,68,19c58-5,108-41,136-97l20-41l10,30c6,16,20,35,32,41
		c27,15,104,5,120-15c11-13,8-14-18-9c-74,15-95-10-108-131c-19-182,77-350,235-408c116-43,146-44,211-7c105,59,235,119,290,132
		l55,14l3,57l3,57h-53c-100,0-127-9-143-46c-15-37-59-64-104-64c-58,0-201,60-242,101c-35,35-39,44-39,88c0,118,63,180,227,222
		c103,26,175,25,238-5c81-37,185-142,185-185c0-5-28,19-62,53c-35,34-85,73-113,86c-129,63-366,16-416-82c-61-120-20-186,138-219
		c81-17,130-3,176,51c33,39,34,39,147,54c130,17,144,27,134,86c-15,80-68,135-187,194c-55,26-98,39-182,51c-139,20-174,29-260,69
		c-82,38-253,148-343,220c-53,42-119,120-156,184C2426,4505,2431,4504,2576,4465z M3715,4169c-11-32,11-21,40,21c15,22,31,38,35,35
		s11-21,14-41c6-31,3-40-27-74c-21-22-42-60-51-94c-9-31-20-56-25-56c-12,0-35,89-34,131c0,20,8,60,18,90c16,48,19,51,27,30
		C3717,4198,3718,4179,3715,4169z M6462,4188l39-43l-5,38c-6,48,8,47,34-3c24-47,26-113,5-195c-18-71-106-317-142-394
		c-25-56-129-201-143-201c-4,0-17-19-28-42l-20-43l1,85c1,47-1,114-3,150c-6,80,8,110,26,59c7-18,13-44,13-56c1-13,5-23,10-23
		c15,0,23,36,17,75c-4,19-8,52-11,73l-5,37l20-45c10-25,20-58,20-75l2-30l9,30c11,35,4,131-16,204c-21,82,1,78,46-9
		c24-47,32-139,17-205c-6-23-2-19,15,15c30,62,28,170-7,313c-14,60-26,123-26,140c0,29,1,30,16,15c9-9,36-52,60-95
		c39-70,43-75,44-46c0,17-9,60-20,94c-10,35-18,65-16,67c9,8,47-60,63-112c9-31,21-56,25-56s8,19,8,43c0,43-32,122-69,174
		c-20,28-39,103-26,103C6419,4230,6440,4211,6462,4188z M1950,4090c9-32,21-47,63-75c29-19,75-41,102-50c45-15,75-37,75-56
		c0-4-17,2-37,12c-45,23-96,25-113,4c-20-24-32-17-28,16c3,28-1,33-37,48c-57,23-66,30-61,49c2,10,7,34,11,55c3,20,8,37,10,37
		S1944,4112,1950,4090z M8248,4075c16-62,16-62-20-81c-39-20-48-31-48-61c0-28-11-29-36-2c-21,23-53,19-92-12c-29-22-38-19-24,8
		c11,20,27,30,111,64c55,23,81,58,81,109C8220,4135,8235,4122,8248,4075z M3810,4068c0-2-7-25-15-52c-16-53-20-106-7-106
		c4,0,24,37,46,83l39,82l7-34c5-22,1-65-11-125c-11-50-22-127-26-172c-5-74-3-86,22-142c15-35,29-61,31-60c1,2-4,28-12,58
		c-21,77-12,138,28,199c37,56,54,65,43,24c-19-70-24-115-24-208c0-111,7-111,40-1l18,61l-4-67c-3-38-2-68,1-68c2,0,13,19,24,43
		l19,42l-6-80c-3-44-16-111-28-150c-23-69-23-70-34-41c-7,16-24,45-40,65c-66,84-161,293-186,410c-13,61-13,66,12,135
		c31,86,41,106,53,106C3806,4070,3810,4069,3810,4068z M4849,3790c1-39-16-3-23,50l-6,45l14-35C4842,3831,4849,3804,4849,3790z
		 M5285,3821c-7-52-25-80-25-40c0,27,22,101,28,95C5290,3873,5289,3848,5285,3821z M2205,3734c25-42,44-78,41-81c-2-3-11,6-19,19
		c-43,70-77,129-77,133C2150,3820,2163,3803,2205,3734z M5335,3346c76-38,129-46,214-36c80,11,182,55,252,111c66,52,53,28-26-51
		c-77-76-87-100-59-131c9-10,24-32,33-50c41-75,130-97,191-46c18,16,44,27,60,27c27,0,90-42,90-60c0-5-25-23-55-40
		c-48-28-59-30-88-21c-17,5-59,15-92,22c-50,9-66,18-97,52c-54,58-47,30,12-49c28-36,50-68,48-69c-8-9-102,71-135,114
		c-65,86-84,58-34-51c32-72,45-108,37-108c-7,0-95,151-118,202l-17,37l52,17c63,20,71,26,63,52c-7,20-7,20-56-1c-48-20-51-20-147-4
		c-54,8-99,14-101,12c-8-8,47-30,103-40l60-11l-60-8l-60-7l-47,51c-26,27-52,50-58,50c-17,0-11-22,11-46c19-20,21-29,14-81
		c-7-51-9-54-15-28c-4,17-22,59-40,95c-28,55-80,191-80,209c0,3,21-16,48-41C5264,3392,5308,3360,5335,3346z M4383,3420
		c69-66,203-110,332-110c71,0,89,4,150,33c39,19,84,50,102,70c18,21,34,37,36,37c7,0-51-154-78-205c-14-27-28-66-32-87
		c-9-59-21-55-29,9c-3,32-8,61-10,65c-3,4-24-1-49-10c-40-14-47-14-76-1l-32,15l99,13c96,14,114,21,114,50c0,10-5,10-25-3
		c-49-32-187-41-295-20l-25,5l24-20c27-24,9-28-29-6c-32,19-40,18-40-1c0-17,57-44,95-44c14,0,25-3,25-7c0-14-82-142-114-179
		c-47-54-55-36-12,26c42,60,49,110,15,110c-11,0-17-4-14-10c11-17-24-68-62-91c-91-55-90-55-51-13c20,21,44,56,53,77
		c20,48,11,48-14-2c-24-47-50-58-161-66c-84-6-87-5-133,26c-26,17-47,34-47,38c0,11,31,37,64,55c29,15,31,14,68-19
		c33-31,45-35,91-35c41,0,63,6,95,27c23,15,42,31,42,36s7,24,16,42c27,58,16,94-43,135c-47,32-103,90-88,90
		C4348,3450,4365,3436,4383,3420z M4061,3380c6-33,15-63,20-66c11-6,39,49,39,78c0,17,3,19,12,10s8-29-6-88c-10-41-16-78-13-80
		c6-7,65,23,90,44c15,14,17,13,17-4c0-23-45-67-107-107l-43-27v55c0,63-13,71-31,21c-7-19-16-33-21-30c-13,9-9,109,7,154
		c8,23,15,55,15,71C4040,3457,4048,3445,4061,3380z M6164,3333c28-24,31-45,19-128l-6-47l-17,33c-10,19-25,48-33,65
		c-9,16-19,64-22,105l-6,74l19-40C6129,3373,6149,3345,6164,3333z M6093,3277c8-18,18-52,22-77c3-25,9-53,12-64c8-30-109,56-140,103
		c-38,57-35,81,4,36c20-23,40-35,56-35c28,0,28-2,8,120c-5,32-4,31,9-8C6072,3328,6085,3295,6093,3277z M4040,2725
		c16-17,38-27,74-31c43-6,59-15,101-55c37-36,47-51,39-59c-9-9-25,0-63,34c-43,38-58,46-92,46c-55,0-93,22-114,65
		c-17,38-14,77,8,104c10,11,13,5,17-32C4014,2768,4025,2741,4040,2725z M5130,2731c0-12-28-22-34-12c-3,5-3,11,1,15
		C5106,2743,5130,2741,5130,2731z M3475,2512c71-31,111-54,113-65c5-24-23-22-88,9c-77,36-140,77-140,92c0,6,1,12,3,12
		C3364,2560,3415,2538,3475,2512z M6848,2508c66-77,69-159,9-258c-41-68-73-92-135-98c-41-4-59,0-101,24c-28,15-60,42-71,59
		c-30,48-24,55,11,13c19-24,44-41,69-48c43-12,114-4,145,15c61,38,100,232,58,284l-20,24l-85-46c-86-47-121-56-133-37
		c-11,17,10,34,57,48c25,7,66,26,94,42c27,16,52,28,55,27S6826,2534,6848,2508z M3338,2483c-14-52-3-127,27-190c36-72,70-95,155-101
		c63-4,70-3,92,20c13,13,28,33,34,44c20,33,24,9,5-27c-24-45-69-70-139-76c-71-7-104,8-159,71c-37,42-73,124-73,167
		c0,35,48,129,66,129C3347,2520,3344,2503,3338,2483z M2848,2365c20,4,52,15,72,25c21,11,43,15,55,10c17-6,10-12-38-34
		c-76-34-136-34-205,0c-71,35-57,48,19,17C2797,2365,2822,2360,2848,2365z M7251,2389c63-32,126-35,181-10c80,36,93,19,16-20
		c-57-29-126-27-194,6c-30,15-54,31-54,36C7200,2414,7206,2413,7251,2389z M4533,2283c46-4,55-8,46-19c-14-17-136-57-149-49
		c-12,7-50,79-50,94c0,6,20,4,48-5C4454,2295,4501,2286,4533,2283z"/>
	<path d="M3170,4968c-19-6-30-12-24-14c5-3,28,2,50,10C3241,4981,3222,4983,3170,4968z"/>
	<path d="M6995,4952c22-10,42-15,44-10c5,13,0,16-44,23l-40,6L6995,4952z"/>
	<path d="M5166,4382c-33-14-49-14-128-3l-90,13l-36-30c-21-16-36-33-35-38c2-13,160-53,209-53c37-1,231,43,243,54
		c11,11-92,77-116,74C5209,4398,5188,4391,5166,4382z"/>
	<path d="M4615,4373c-40-10-86-36-95-53c-9-16-7-16,28-4c45,16,153,18,205,3c22-6,41-9,43-6c3,2-12,17-32,32
		C4727,4373,4661,4386,4615,4373z"/>
	<path d="M5476,4360c-28-11-57-27-65-36c-15-15-14-16,14-10c76,17,180,18,218,3c49-21,47-6-5,32C5588,4386,5548,4388,5476,4360z"/>
	<path d="M2935,3290c-93-52-465-94-624-71c-46,7-86,10-89,7c-16-17,224-216,284-236c45-15,129-8,175,15c28,14,319,298,319,311
		C3000,3324,2985,3318,2935,3290z"/>
	<path d="M5100,7415c0-54-100-178-229-286l-54-45l12-37c14-41,137-234,164-256c15-12,17-10,17,16c0,17-9,67-21,113
		c-11,45-18,84-16,86c4,4,33-65,52-121c4-15,8-16,14-6c5,7,19,18,32,25c13,6,25,18,26,26s5,33,9,55c6,37,8,38,14,15c5-14,8-41,9-61
		c1-22,9-43,21-54c30-27,42-12,86,100c7,17,9,15,12-12c2-18-5-48-17-70c-23-46-36-107-26-124c18-29,172,196,189,277c6,27,3,33-38,62
		c-58,42-184,193-216,260C5115,7430,5100,7444,5100,7415z"/>
	<path d="M3788,7303c7-65,12-67,12-5c0,29-4,52-9,52S3785,7329,3788,7303z"/>
	<path d="M6411,7304c0-11,3-14,6-6c3,7,2,16-1,19C6413,7321,6410,7315,6411,7304z"/>
	<path d="M4496,7104c-61-22-128-70-155-108l-23-36l20-77c27-103,90-399,95-443c3-39,12-26,22,33c7,46,18,47,37,5c8-18,20-44,26-58
		c9-22,11-16,13,45c4,119-2,155-46,295c-38,121-47,164-27,134c4-6,59-49,122-96c146-108,228-183,236-217c15-60,69-83,80-33
		c10,48,13,52,38,52c28,0,36-16,36-74s-19-81-67-81h-38v-105c0-102-1-108-41-195c-63-135-68-156-60-259c3-50,8-104,11-121
		c6-30,6-30-12,5c-13,27-17,61-18,157v122l-22-27c-12-15-25-43-29-62c-9-42,9-197,24-212c6-6,32-14,59-19c41-7,56-17,102-66
		c43-45,53-52,48-33c-3,14-8,50-12,80l-5,55l24-60c14-33,25-70,25-82c1-33-36-30-101,8c-39,23-70,33-115,37c-89,7-125-3-175-49
		c-29-27-36-38-23-35c61,15,124,17,221,6c183-19,242-47,259-125c5-26,2-23-29,21c-50,74-74,78-34,6c17-31,47-79,65-105
		c19-27,33-51,31-53s-48,39-102,91s-99,95-101,95c-1,0-6-15-9-34c-12-62,17-101,124-168c52-33,103-64,113-70c14-7,38,2,110,42
		c51,29,104,64,119,78c36,33,52,81,39,116c-14,34-23,33-54-7c-35-46-127-139-127-128c0,4,8,19,19,32c25,33,54,90,48,96
		c-3,2-13-12-23-33c-10-20-20-32-22-25c-2,6,9,37,25,68c27,54,32,58,88,76c47,15,91,20,202,21c79,0,143,3,143,6s-13,20-29,37
		c-51,57-164,59-249,5c-40-27-102-43-102-28c0,16,44,143,52,151c7,7,9,2,4-15c-15-56-19-120-7-120c6,0,11,6,11,14c0,32,49,73,108,90
		c55,15,60,19,71,56c7,22,9,45,6,50s-10,53-14,105c-7,88-11,99-39,128c-16,18-47,64-67,102c-36,68-37,72-32,155c3,47,8,95,12,108
		c7,21,5,22-54,22h-61l6,48c10,87,15,112,24,112c25,0,41-16,50-51c6-22,17-39,25-39s45,38,84,84c38,46,94,103,123,128
		c99,82,208,159,208,145c0-7-18-71-40-142c-38-120-40-136-38-230l3-100l17,38c20,44,38,48,38,8c0-47,17-45,24,2c4,23,14,52,22,64
		c8,13,25,78,38,145c55,288,58,306,47,327c-28,51-162,121-235,123c-45,1-96-22-96-42c0-5-11-17-24-25c-23-15-27-15-65,5
		c-36,18-42,19-47,5c-4-8-3-27,0-41c4-15,3-23-3-20c-5,3-24-18-41-46c-18-29-55-81-81-115c-80-103-94-136-94-228c0-71-3-82-22-98
		c-32-26-32-95,0-125c13-12,29-22,35-22c9,0,12-48,13-177c3-418-2-466-68-605l-37-77l-53,108c-66,138-72,176-75,503l-3,257l28,5
		c25,5,27,9,27,50c0,24-7,60-15,79c-8,20-15,66-15,104c0,82-15,116-116,260c-40,57-85,129-100,159c-14,30-30,54-33,54
		c-4,0-18-11-31-25s-27-25-32-25s-22,16-39,35c-28,32-81,56-119,54C4542,7119,4517,7112,4496,7104z M5464,5892c-1-73-5-137-10-142
		s-9,56-9,150c0,109,3,153,10,142C5460,6033,5464,5965,5464,5892z"/>
	<path d="M3161,6849c-1-8,6-24,15-35c15-19,15-19,6,1c-5,11-12,27-15,35C3162,6863,3161,6863,3161,6849z"/>
	<path d="M5083,6852c-7-4-20-28-28-52c-13-37-15-67-9-165c3-66,10-128,13-138c6-17,8-17,25,2c16,17,19,44,24,178c6,172,19,167,21-9
		c1-122,13-170,36-147c9,9,17,48,21,111c8,111-8,172-53,208C5105,6862,5100,6863,5083,6852z"/>
	<path d="M3620,6801c5-11,15-23,21-27c6-3,3,5-6,20C3615,6824,3605,6829,3620,6801z"/>
	<path d="M4506,6785c4-22,25-87,47-145c38-99,41-113,46-245l6-140l20,47c11,27,23,48,26,48c4,0,0-30-7-67c-8-36-12-68-10-70
		c9-10,47,10,76,39c46,45,46,29,0-39c-50-76-51-93-6-93c61,0,85,16,111,72c21,45,25,68,25,148c0,106-11,165-34,188
		c-11,11-18,12-28,4c-11-9-13-5-10,21c5,42-49,105-162,189c-45,33-87,65-94,71C4501,6822,4500,6817,4506,6785z"/>
	<path d="M5626,6739c-102-85-156-154-156-198c0-19-3-22-12-13c-7,7-17,12-24,12c-38,0-56-284-21-347c23-43,57-64,112-71
		c39-4,45-2,45,14c0,11-16,44-35,74c-46,72-44,79,8,28c39-40,42-42,45-20c3,21-9,92-23,137c-4,11,10-7,30-40c36-59,36-59,30-22
		c-10,60,14,191,62,341c24,77,43,150,41,164C5725,6820,5718,6816,5626,6739z"/>
	<path d="M4341,6714c1-21,5-50,10-64c5-16,6-4,2,35C4347,6755,4340,6771,4341,6714z"/>
	<path d="M2980,6582c0-6,66-36,148-68c287-112,363-156,379-221c8-31,11-35,17-18c18,52,35,72,81,94l50,23l-97,32
		c-53,17-109,40-125,52c-64,46-138,73-204,72c-55,0-150,15-226,38C2989,6590,2980,6588,2980,6582z"/>
	<path d="M3620,6584c-14-3-55-11-92-19s-81-15-97-15c-75,0-5-67,110-106c45-15,94-24,134-24h64l8,43c8,38,11,42,42,45
		c18,2,40,0,49-3c14-5,13-9-9-20c-30-16-63-80-86-169c-15-56-15-65,1-118c9-31,31-76,49-100c41-54,130-116,179-124c36-6,36-6,43-68
		c8-78,53-173,105-220c49-44,138-73,178-58c15,6,59,12,98,15c92,5,124,25,124,77c0,123-126,312-247,371c-42,21-50,21-92,9
		c-78-22-104-22-139,0c-37,23-62,72-62,122c0,34,25,83,64,127l21,25l-29-18c-72-45-103-117-87-202c8-43,8-47-5-30
		c-24,33-28,83-10,131c20,52,95,125,129,125c30,0,139-60,209-115c29-23,75-74,101-113c51-74,125-239,160-357c12-38,22-72,24-74
		s12,4,24,15c18,16,21,27,16,77c-3,31-3,57-1,57c3,0,18-29,34-65c19-43,35-65,46-65c14,0,16,7,11,44c-11,78-31,119-122,246
		c-133,187-221,267-400,365c-38,21-102,61-142,87c-39,27-102,60-140,73C3817,6578,3674,6593,3620,6584z"/>
	<path d="M6405,6580c-87-18-183-66-270-135c-22-17-71-49-110-70c-84-46-205-137-261-196c-51-55-157-204-178-249c-8-19-26-70-39-112
		l-24-78h23c26,0,43,27,65,100l14,45l5-80c7-114,25-108,73,25c21,58,44,125,52,151c44,139,171,289,306,362c74,39,127,37,170-5
		c17-18,38-48,46-67c18-42,20-110,5-137c-9-15-11-6-12,49c0,87-23,137-77,165c-34,19-38,14-8-10c33-26,55-75,55-123
		c0-42-12-69-48-107c-30-32-59-35-122-13c-82,29-127,16-207-58c-84-77-147-187-166-289c-10-58-10-61,12-79c12-10,39-21,59-24
		s60-10,87-15c60-10,131,1,193,32c32,15,55,37,83,81c45,69,59,112,59,180c0,42,2,47,23,47c121,0,267,162,267,297c0,59-38,169-71,204
		l-27,29h38c41,0,55-11,66-54l7-29l66,6c156,13,329,124,206,132c-22,1-80,10-129,19C6542,6591,6470,6593,6405,6580z"/>
	<path d="M7155,6573c-22-8-83-18-136-22c-86-7-105-12-200-58c-57-28-137-61-176-73c-77-23-84-34-30-44c38-7,74-49,83-96
		c8-38,24-39,24-1c0,57,68,109,236,180c178,75,220,94,233,107C7211,6587,7199,6589,7155,6573z"/>
	<path d="M5083,6433c-7-2-13-16-13-29c0-14-7-41-15-62c-31-73-34-116-25-341c8-183,13-230,29-265c40-92,44-74,36,160
		c-4,121-10,252-14,292c-8,82,2,115,36,120c19,3,23-3,29-44c4-26,3-144-2-263c-9-225-9-320,2-330c11-11,31,29,45,92
		c10,43,14,134,14,292v230l-31,63C5128,6439,5118,6448,5083,6433z"/>
	<path d="M6885,6404c-86-44-112-67-125-113c-25-90-5-101,97-51c112,55,216,57,260,6c29-34,29-71,1-116l-22-35l-12,53
		c-26,113-66,129-169,65c-46-29-71-38-110-39l-50-2l-25-61c-29-70-78-125-138-153c-62-30-60-38,7-38c37,0,110-13,182-32
		c102-27,122-30,130-17c11,17,3,76-16,105c-19,30-83,58-132,59c-41,0-53,7-34,20c14,8,143-20,181-40c50-26,77-115,50-166
		c-15-26-52-24-152,8c-70,23-101,27-195,28c-106,0-128,4-102,21c18,11,59,107,59,139v30l-20-33c-31-50-101-114-161-146
		c-93-50-177-115-240-187c-99-111-185-139-336-110c-95,19-125,21-120,8c2-7,17-13,33-13c16-1,49-7,74-13s65-16,90-22s89-39,145-75
		c78-51,105-64,125-59c25,6,92,38,226,110c72,37,72,37,135,26c166-29,194-54,136-118c-26-29-22-29,47,2c31,14,63,25,70,25
		s19,7,26,15c10,12,10,15,0,15c-7,0-44,28-84,62c-96,83-141,102-241,103c-44,0-96-4-115-8c-58-13-10,11,56,28c47,12,70,13,118,4
		c71-13,219-85,263-129c30-29,32-30,42-12c29,55,158,70,232,27c24-14,49-25,54-25c15,0,58,68,52,83c-10,26-120,70-188,75
		c-78,5-119-6-185-53c-57-41-76-27-23,17c54,46,134,71,204,65c85-7,189-43,229-77c18-17,36-30,40-30c3,0,9,14,14,32
		c6,24,15,34,38,40c107,28,127,189,31,262c-54,42-136,66-224,67c-43,1-89,4-103,8c-23,7-23,8-5,14c11,3,40,9,65,12
		c114,17,165,146,102,260c-37,67-96,107-164,112C6963,6440,6944,6435,6885,6404z M6990,6099c0-16-31-22-43-10c-9,9-9,14,2,20
		C6965,6119,6990,6113,6990,6099z"/>
	<path d="M5521,5905l2-80l10,68c7,49,6,72-2,80S5520,5963,5521,5905z"/>
	<path d="M6323,5933c-33-23-28-36,7-18c17,9,30,20,30,25C6360,5954,6349,5952,6323,5933z"/>
	<path d="M3850,5932c0-4,10-13,21-21c19-11,21-11,15,4c-3,9-6,19-6,21s-7,4-15,4S3850,5937,3850,5932z"/>
	<path d="M4489,5620c-20-16-21-19-7-20c10,0,22,9,28,20C4523,5645,4518,5645,4489,5620z"/>
	<path d="M6423,5525c-17-7-74-42-126-77c-51-35-102-68-113-74c-36-22,29-29,84-9c26,9,97,29,157,45c111,29,225,70,225,81
		c0,15-120,49-170,48C6466,5539,6441,5533,6423,5525z"/>
	<path d="M3625,5515c-27-8-61-15-75-15c-17-1-10-5,23-14c26-7,55-20,65-28c22-19,42-26,127-44c39-8,102-28,142-46c75-32,118-33,92-2
		c-21,26-190,137-229,151C3725,5533,3688,5532,3625,5515z"/>
	<path d="M4303,5496c-34-13-95-44-137-70c-66-41-75-50-70-70c3-13-2-49-11-81c-29-100-7-218,47-250c31-18,31-18,23,1
		c-31,76-37,103-32,174c7,120,36,158,194,255C4427,5522,4421,5540,4303,5496z"/>
	<path d="M5830,5490c19-17,55-43,80-57c137-79,175-139,168-267c-3-49-11-94-21-113c-21-39-5-45,35-14c52,42,64,168,23,245
		c-14,26-25,57-25,69c0,41-170,147-260,162l-35,6L5830,5490z"/>
	<path d="M4006,5274c-31-30-15-190,23-227c11-11,23-19,26-16c7,8-18,259-26,259C4025,5290,4014,5283,4006,5274z"/>
	<path d="M6166,5248c-9-55-13-208-6-208c4,0,15,9,26,21c14,15,20,40,22,95c2,41,1,85-2,99C6197,5291,6172,5286,6166,5248z"/>
	<path d="M7180,3317c0-13,292-299,317-311c18-9,59-19,92-22c95-10,157,26,329,190c28,28,52,53,52,56c0,4-30,0-67-8
		c-145-30-523,10-649,69C7196,3319,7180,3324,7180,3317z"/>
	<path d="M6510,3079c-30-10-68-21-83-24s-30-13-34-23c-20-59-58-132-85-159c-29-30-31-36-25-86c9-95,52-131,129-108
		c49,15,80,47,98,101c7,22,15,40,17,40s16-13,30-30c13-16,29-30,34-30c16,0,10,44-11,80l-21,35l35-40l35-39l7,29c5,17,8,59,9,95
		c0,58-4,73-35,123c-19,31-37,56-40,56C6567,3098,6540,3089,6510,3079z"/>
	<path d="M5802,2588c-5-125-67-230-153-257c-69-22-138,4-238,91c-46,40-71,48-71,24c0-8,13-48,30-88c24-58,29-67,30-43
		c0,17-4,45-10,64l-9,34l33-39c19-22,60-52,94-68l60-29l-35-76c-49-104-100-264-114-352c-21-136,5-273,67-354c14-19,64-62,112-96
		s102-76,120-93c46-42,83-118,89-182c5-49,3-55-25-83c-23-24-39-31-69-31c-51,1-113,30-146,69c-32,39-34,55-7,88c26,33,25,46-4,80
		c-20,23-32,28-70,27c-52-1-89-22-116-67c-74-120,61-251,301-293c77-13,107-14,164-5c166,27,282,97,306,184c15,57,5,139-23,190
		l-24,42l56,3c71,4,141,24,232,67c40,19,86,35,103,35c55,0,101-19,113-46c17-35,15-47-12-87c-37-55-40-72-14-97c33-31,104-22,204,26
		c113,55,168,115,243,267c32,67,74,157,92,200c60,145,142,211,264,212c61,0,76-4,112-29c23-15,56-50,74-77c17-27,45-59,62-71
		c64-46,181-16,232,59c37,56,34,62-27,47c-92-24-98-22-98,36c0,28-6,66-14,85c-22,51-92,122-140,140c-64,25-217,15-316-19
		c-136-48-177-88-241-236c-51-119-81-165-127-194c-64-41-92-40-174,3c-96,51-167,71-249,71c-80,0-114-13-222-85
		c-93-62-159-81-223-64c-125,34-307,174-320,246c-16,84,39,275,96,333c16,16,45,59,66,96c63,112,56,234-19,345
		C5815,2638,5804,2637,5802,2588z M5810,2295c0-13-7-39-16-58l-16-33l-62,19c-33,11-69,27-79,37c-18,16-16,17,36,23
		c30,3,68,12,84,21C5797,2326,5810,2324,5810,2295z"/>
	<path d="M4900,2525c0-8-12-40-27-72c-26-58-44-163-26-163c13,0,82,208,76,231C4917,2543,4900,2547,4900,2525z"/>
</g>
</svg>
