<svg id="Capa_1" data-name="Capa 1" xmlns="http://www.w3.org/2000/svg" viewBox="0 0 366.76 349.64"><defs><style>.cls-1,.cls-2{fill:#0273fc;}.cls-1{fill-rule:evenodd;}</style></defs><g id="SvgjsG1993"><path class="cls-1" d="M6.11,79.46,183.38,0,360.64,79.46,183.38,12.23Zm0,172.38,177.27,97.8L360.64,245.73,183.38,337.42Z" transform="translate(0)"/></g><g id="SvgjsG1994"><path class="cls-2" d="M58.77,126.16l7.36,4.25v-7.26l-9.75-5.64L5.22,147.08a3.55,3.55,0,0,1-1.74.47A3.52,3.52,0,0,1,0,144.06l0-14.52A4.34,4.34,0,0,1,2.4,125.4l25.75-14.88a3.47,3.47,0,1,1,3.46,6L7,130.79v7.26l47-27.18a4.33,4.33,0,0,1,4.78,0l11.92,6.89a4.33,4.33,0,0,1,2.39,4.14l0,14.53a3.48,3.48,0,0,1-5.21,3l-11.47-6.65L45,139.4a3.47,3.47,0,1,1-3.47-6L54,126.16a4.33,4.33,0,0,1,4.78,0Zm24,36.67a3.47,3.47,0,0,1-3.46-3.48V129.54a4.34,4.34,0,0,1,2.38-4.14l12.55-7.26a3.47,3.47,0,0,1,5.21,3l0,30.57a3.48,3.48,0,0,1-7,0V127.16l-6.27,3.63v28.56a3.48,3.48,0,0,1-3.48,3.48ZM33.41,189.92a3.47,3.47,0,1,1-6.94,0V144.07a3.47,3.47,0,1,1,6.94,0Zm23-49.32a3.47,3.47,0,0,1,1.68,6.51l-11.43,6.61v43.85a3.48,3.48,0,0,1-7,0v-45.1a4.34,4.34,0,0,1,2.39-4.14L54.6,141.1a3.39,3.39,0,0,1,1.79-.5Zm28.12,61.57a3.47,3.47,0,1,1-3.47,6L68.52,201a4.33,4.33,0,0,1-2.39-4.14v-45.1a3.48,3.48,0,0,1,7,0v43.86Zm-52.89,0a3.47,3.47,0,1,1-3.47,6L15.63,201a4.33,4.33,0,0,1-2.38-4.13V157.73l-8,4.6a3.38,3.38,0,0,1-1.78.5A3.48,3.48,0,0,1,0,159.36a3.52,3.52,0,0,1,1.8-3L15,148.71a3.58,3.58,0,0,1,1.75-.47,3.48,3.48,0,0,1,3.46,3.48l0,43.85ZM126,151.72l0,45.85a3.48,3.48,0,0,1-7,0V157.73L86.3,176.65v13.28a3.47,3.47,0,0,1-6.94,0V175.4a4.35,4.35,0,0,1,2.38-4.14l39-22.55a3.54,3.54,0,0,1,1.74-.46,3.48,3.48,0,0,1,3.47,3.47Zm-16.69,19.45a3.49,3.49,0,0,1,3.47,3.47v30.57a3.47,3.47,0,1,1-6.94,0V180.66l-8,4.6a3.47,3.47,0,0,1-5.26-3,3.51,3.51,0,0,1,1.79-3l13.15-7.61a3.52,3.52,0,0,1,1.74-.47Zm53.58,37.51a3.47,3.47,0,0,1-1.68-6.51l24.65-14.25V161.36l-11.5-6.63a3.57,3.57,0,0,1-1.73-3,3.45,3.45,0,0,1,1.73-3l11.51-6.64V130.79l-9.75-5.64-37.94,21.93a3.48,3.48,0,0,1-1.75.47,3.52,3.52,0,0,1-3.47-3.49V129.54a4.36,4.36,0,0,1,2.39-4.14l25.74-14.88a3.47,3.47,0,1,1,3.47,6l-24.65,14.25v7.26l33.8-19.54a4.33,4.33,0,0,1,4.78,0l11.92,6.89a4.34,4.34,0,0,1,2.39,4.14v13.78a4.34,4.34,0,0,1-2.39,4.14L183,151.71l7.37,4.26a4.34,4.34,0,0,1,2.39,4.14v29.06a4.31,4.31,0,0,1-2.39,4.13l-25.74,14.89a3.48,3.48,0,0,1-1.79.49ZM149.62,201a3.47,3.47,0,0,1-1.68-6.51l21.19-12.25-6.29-3.63L138.19,192.9a3.42,3.42,0,0,1-1.79.5,3.47,3.47,0,0,1-1.68-6.51L160.46,172a4.31,4.31,0,0,1,4.77,0l12.56,7.27a3.55,3.55,0,0,1,1.73,3,3.48,3.48,0,0,1-1.73,3l-26.38,15.26a3.61,3.61,0,0,1-1.79.49Zm-13.24-22.92a3.52,3.52,0,0,1-3.47-3.49l0-14.52a4.35,4.35,0,0,1,2.38-4.14l39-22.52a3.47,3.47,0,1,1,3.47,6l-37.88,21.89v7.26l20.58-11.89a4.33,4.33,0,0,1,4.78,0L177.75,164a3.47,3.47,0,0,1-1.69,6.51,3.38,3.38,0,0,1-1.78-.5l-11.44-6.6-24.72,14.28a3.55,3.55,0,0,1-1.74.47ZM256.14,201a3.47,3.47,0,0,1-3.46-3.47V169l-11.51-6.64a3.54,3.54,0,0,1-1.73-3,3.45,3.45,0,0,1,1.73-3l11.51-6.64V123.14l-9.75-5.63-23,13.28v7.26l21.21-12.27a3.47,3.47,0,0,1,5.21,3l0,14.53a4.33,4.33,0,0,1-2.39,4.14l-12.52,7.24a3.47,3.47,0,1,1-3.47-6l11.43-6.6V134.8l-21.24,12.28a3.58,3.58,0,0,1-1.75.47,3.52,3.52,0,0,1-3.47-3.49V129.54a4.35,4.35,0,0,1,2.39-4.14l25.14-14.53a4.33,4.33,0,0,1,4.78,0l11.92,6.89a4.33,4.33,0,0,1,2.39,4.14V151a4.34,4.34,0,0,1-2.39,4.14l-7.37,4.26,7.37,4.25a4.34,4.34,0,0,1,2.39,4.14v29.82a3.48,3.48,0,0,1-3.48,3.47Zm-39.66,7.64h0a3.47,3.47,0,0,1-1.68-6.51l11.43-6.6,0-28.58a3.49,3.49,0,0,1,3.47-3.46,3.54,3.54,0,0,1,1.74.46L244,171.26a4.33,4.33,0,0,1,2.39,4.14v29.81a3.47,3.47,0,0,1-6.94,0V176.64L233.18,173v23.8a4.33,4.33,0,0,1-2.39,4.14l-12.52,7.24a3.48,3.48,0,0,1-1.79.49ZM203.25,201h0a3.53,3.53,0,0,1-3.48-3.49l0-75.66a4.34,4.34,0,0,1,2.39-4.14l12.51-7.23a3.47,3.47,0,1,1,3.47,6l-11.43,6.61v68.41l6.28-3.63V159.36a3.47,3.47,0,1,1,6.94,0v29.82a4.3,4.3,0,0,1-2.38,4.12L205,200.58a3.44,3.44,0,0,1-1.74.47Zm95.68,37.37a4.67,4.67,0,0,1-2.38.72,4.73,4.73,0,0,1-2.39-.72l-12.52-7.24a3.47,3.47,0,1,1,3.47-6l11.44,6.61,9.75-5.64V151.71a3.47,3.47,0,0,1,6.94,0v75.67a4.33,4.33,0,0,1-2.39,4.14Zm-15.61-45a3.44,3.44,0,0,1-1.79-.49L269,185.66a4.32,4.32,0,0,1-2.39-4.13V151.71a3.47,3.47,0,1,1,6.94,0v28.57l11.44,6.6a3.47,3.47,0,0,1-1.69,6.51ZM296.54,224a3.48,3.48,0,0,1-3.47-3.48V144.07a3.48,3.48,0,0,1,6.95,0v76.42A3.48,3.48,0,0,1,296.54,224Zm-13.22-45.86a3.47,3.47,0,0,1-3.47-3.47V144.07a3.48,3.48,0,0,1,6.95,0v30.57A3.47,3.47,0,0,1,283.32,178.11Zm53.52,30.45h0a4.73,4.73,0,0,1-2.39-.72L322.55,201a4.34,4.34,0,0,1-2.39-4.14V152.47a4.33,4.33,0,0,1,2.39-4.14l12.51-7.23a3.47,3.47,0,1,1,3.47,6l-11.43,6.61v41.85l9.75,5.63,23-13.28V150.09l-19.5,11.27v22.55l6.28-3.63V167a3.48,3.48,0,1,1,6.95,0v14.53a4.34,4.34,0,0,1-2.39,4.14l-12.59,7.26a3.44,3.44,0,0,1-1.74.47,3.52,3.52,0,0,1-3.47-3.49v-29.8a4.33,4.33,0,0,1,2.39-4.14l25.77-14.9a3.44,3.44,0,0,1,1.74-.47,3.48,3.48,0,0,1,3.47,3.47l0,45.1a4.29,4.29,0,0,1-2.39,4.12l-25.14,14.55a4.73,4.73,0,0,1-2.39.72Z" transform="translate(0)"/></g></svg>